<mxfile host="app.diagrams.net" agent="Mozilla/5.0 (Windows NT 10.0; Win64; x64) AppleWebKit/537.36 (KHTML, like Gecko) Chrome/130.0.0.0 YaBrowser/24.12.0.0 Safari/537.36" version="26.0.8">
  <diagram name="Страница — 1" id="695ID7bgG2WFHrSCJuuI">
    <mxGraphModel dx="1434" dy="1998" grid="1" gridSize="10" guides="1" tooltips="1" connect="1" arrows="1" fold="1" page="1" pageScale="1" pageWidth="827" pageHeight="1169" math="0" shadow="0">
      <root>
        <mxCell id="0" />
        <mxCell id="1" parent="0" />
        <mxCell id="zl0BZrbLmQ8mZboYd0fY-1" value="Views:home.html" style="rounded=1;whiteSpace=wrap;html=1;" parent="1" vertex="1">
          <mxGeometry x="240" y="-30" width="140" height="40" as="geometry" />
        </mxCell>
        <mxCell id="zl0BZrbLmQ8mZboYd0fY-2" value="Views:client/index.html" style="rounded=1;whiteSpace=wrap;html=1;" parent="1" vertex="1">
          <mxGeometry x="490" y="-30" width="150" height="40" as="geometry" />
        </mxCell>
        <mxCell id="zl0BZrbLmQ8mZboYd0fY-3" value="Controller: client_controller" style="rounded=1;whiteSpace=wrap;html=1;" parent="1" vertex="1">
          <mxGeometry x="740" y="-30" width="150" height="40" as="geometry" />
        </mxCell>
        <mxCell id="zl0BZrbLmQ8mZboYd0fY-4" value="Model: client" style="rounded=1;whiteSpace=wrap;html=1;" parent="1" vertex="1">
          <mxGeometry x="970" y="-30" width="150" height="40" as="geometry" />
        </mxCell>
        <mxCell id="zl0BZrbLmQ8mZboYd0fY-6" value="DB" style="strokeWidth=2;html=1;shape=mxgraph.flowchart.database;whiteSpace=wrap;" parent="1" vertex="1">
          <mxGeometry x="1220" y="-80" width="80" height="90" as="geometry" />
        </mxCell>
        <mxCell id="zl0BZrbLmQ8mZboYd0fY-7" value="User" style="shape=umlActor;verticalLabelPosition=bottom;verticalAlign=top;html=1;" parent="1" vertex="1">
          <mxGeometry x="80" y="-65" width="30" height="60" as="geometry" />
        </mxCell>
        <mxCell id="zl0BZrbLmQ8mZboYd0fY-8" value="" style="endArrow=none;dashed=1;html=1;rounded=0;entryX=0.5;entryY=1;entryDx=0;entryDy=0;" parent="1" source="Iv9XVQGBqn2HQ4vPcbje-3" target="zl0BZrbLmQ8mZboYd0fY-1" edge="1">
          <mxGeometry width="50" height="50" relative="1" as="geometry">
            <mxPoint x="310" y="470" as="sourcePoint" />
            <mxPoint x="320" y="130" as="targetPoint" />
          </mxGeometry>
        </mxCell>
        <mxCell id="zl0BZrbLmQ8mZboYd0fY-9" value="" style="endArrow=none;dashed=1;html=1;rounded=0;entryX=0.5;entryY=1;entryDx=0;entryDy=0;" parent="1" source="Iv9XVQGBqn2HQ4vPcbje-9" edge="1">
          <mxGeometry width="50" height="50" relative="1" as="geometry">
            <mxPoint x="565" y="470" as="sourcePoint" />
            <mxPoint x="565" y="10" as="targetPoint" />
          </mxGeometry>
        </mxCell>
        <mxCell id="zl0BZrbLmQ8mZboYd0fY-10" value="" style="endArrow=none;dashed=1;html=1;rounded=0;entryX=0.5;entryY=1;entryDx=0;entryDy=0;exitX=0;exitY=0;exitDx=0;exitDy=0;" parent="1" source="zl0BZrbLmQ8mZboYd0fY-16" edge="1">
          <mxGeometry width="50" height="50" relative="1" as="geometry">
            <mxPoint x="800" y="100" as="sourcePoint" />
            <mxPoint x="800" y="10" as="targetPoint" />
          </mxGeometry>
        </mxCell>
        <mxCell id="zl0BZrbLmQ8mZboYd0fY-11" value="" style="endArrow=none;dashed=1;html=1;rounded=0;entryX=0.5;entryY=1;entryDx=0;entryDy=0;" parent="1" edge="1">
          <mxGeometry width="50" height="50" relative="1" as="geometry">
            <mxPoint x="1045" y="170" as="sourcePoint" />
            <mxPoint x="1044.57" y="10" as="targetPoint" />
          </mxGeometry>
        </mxCell>
        <mxCell id="zl0BZrbLmQ8mZboYd0fY-12" value="" style="endArrow=none;dashed=1;html=1;rounded=0;entryX=0.5;entryY=1;entryDx=0;entryDy=0;" parent="1" edge="1">
          <mxGeometry width="50" height="50" relative="1" as="geometry">
            <mxPoint x="1260" y="480" as="sourcePoint" />
            <mxPoint x="1259.57" y="10" as="targetPoint" />
          </mxGeometry>
        </mxCell>
        <mxCell id="zl0BZrbLmQ8mZboYd0fY-13" value="" style="rounded=0;whiteSpace=wrap;html=1;" parent="1" vertex="1">
          <mxGeometry x="305" y="60" width="10" height="70" as="geometry" />
        </mxCell>
        <mxCell id="zl0BZrbLmQ8mZboYd0fY-14" value="" style="endArrow=none;dashed=1;html=1;rounded=0;" parent="1" edge="1">
          <mxGeometry width="50" height="50" relative="1" as="geometry">
            <mxPoint x="90" y="480" as="sourcePoint" />
            <mxPoint x="90" y="20" as="targetPoint" />
          </mxGeometry>
        </mxCell>
        <mxCell id="zl0BZrbLmQ8mZboYd0fY-15" value="" style="endArrow=classic;html=1;rounded=0;" parent="1" edge="1">
          <mxGeometry width="50" height="50" relative="1" as="geometry">
            <mxPoint x="100" y="80" as="sourcePoint" />
            <mxPoint x="300" y="80" as="targetPoint" />
          </mxGeometry>
        </mxCell>
        <mxCell id="zl0BZrbLmQ8mZboYd0fY-23" value="Открытие root_path" style="edgeLabel;html=1;align=center;verticalAlign=middle;resizable=0;points=[];" parent="zl0BZrbLmQ8mZboYd0fY-15" vertex="1" connectable="0">
          <mxGeometry x="0.11" y="1" relative="1" as="geometry">
            <mxPoint x="-11" y="-9" as="offset" />
          </mxGeometry>
        </mxCell>
        <mxCell id="zl0BZrbLmQ8mZboYd0fY-17" value="" style="endArrow=classic;html=1;rounded=0;" parent="1" edge="1">
          <mxGeometry width="50" height="50" relative="1" as="geometry">
            <mxPoint x="330" y="170" as="sourcePoint" />
            <mxPoint x="790" y="170" as="targetPoint" />
          </mxGeometry>
        </mxCell>
        <mxCell id="zl0BZrbLmQ8mZboYd0fY-16" value="" style="rounded=0;whiteSpace=wrap;html=1;" parent="1" vertex="1">
          <mxGeometry x="800" y="150" width="10" height="180" as="geometry" />
        </mxCell>
        <mxCell id="zl0BZrbLmQ8mZboYd0fY-20" value="" style="endArrow=none;dashed=1;html=1;rounded=0;entryX=0.5;entryY=1;entryDx=0;entryDy=0;" parent="1" source="QBLKQdz6iIuvLNrxdn-J-8" edge="1">
          <mxGeometry width="50" height="50" relative="1" as="geometry">
            <mxPoint x="1045" y="480" as="sourcePoint" />
            <mxPoint x="1045" y="170" as="targetPoint" />
          </mxGeometry>
        </mxCell>
        <mxCell id="zl0BZrbLmQ8mZboYd0fY-24" value="GET /&lt;span style=&quot;font-size: 12px; text-wrap-mode: wrap;&quot;&gt;client&lt;/span&gt;" style="edgeLabel;html=1;align=center;verticalAlign=middle;resizable=0;points=[];" parent="1" vertex="1" connectable="0">
          <mxGeometry x="570.0044827586207" y="150.00000000000023" as="geometry" />
        </mxCell>
        <mxCell id="zl0BZrbLmQ8mZboYd0fY-34" value="" style="endArrow=none;dashed=1;html=1;rounded=0;entryX=0;entryY=1;entryDx=0;entryDy=0;" parent="1" target="zl0BZrbLmQ8mZboYd0fY-16" edge="1">
          <mxGeometry width="50" height="50" relative="1" as="geometry">
            <mxPoint x="800" y="480" as="sourcePoint" />
            <mxPoint x="830" y="260" as="targetPoint" />
          </mxGeometry>
        </mxCell>
        <mxCell id="zl0BZrbLmQ8mZboYd0fY-38" value="" style="endArrow=classic;html=1;rounded=0;" parent="1" edge="1">
          <mxGeometry width="50" height="50" relative="1" as="geometry">
            <mxPoint x="790" y="319.31" as="sourcePoint" />
            <mxPoint x="590" y="320" as="targetPoint" />
          </mxGeometry>
        </mxCell>
        <mxCell id="zl0BZrbLmQ8mZboYd0fY-39" value="Рендеринг index.html" style="edgeLabel;html=1;align=center;verticalAlign=middle;resizable=0;points=[];" parent="1" vertex="1" connectable="0">
          <mxGeometry x="680.0044827586207" y="290.0000000000002" as="geometry">
            <mxPoint x="-2" y="10" as="offset" />
          </mxGeometry>
        </mxCell>
        <mxCell id="zl0BZrbLmQ8mZboYd0fY-41" value="" style="endArrow=classic;html=1;rounded=0;" parent="1" edge="1">
          <mxGeometry width="50" height="50" relative="1" as="geometry">
            <mxPoint x="550" y="330" as="sourcePoint" />
            <mxPoint x="110" y="330" as="targetPoint" />
          </mxGeometry>
        </mxCell>
        <mxCell id="zl0BZrbLmQ8mZboYd0fY-42" value="Отображение списка" style="edgeLabel;html=1;align=center;verticalAlign=middle;resizable=0;points=[];" parent="1" vertex="1" connectable="0">
          <mxGeometry x="340.0044827586207" y="290.0000000000002" as="geometry">
            <mxPoint x="-2" y="10" as="offset" />
          </mxGeometry>
        </mxCell>
        <mxCell id="QBLKQdz6iIuvLNrxdn-J-4" value="" style="endArrow=classic;html=1;rounded=0;" parent="1" edge="1">
          <mxGeometry width="50" height="50" relative="1" as="geometry">
            <mxPoint x="827" y="180" as="sourcePoint" />
            <mxPoint x="1027" y="180" as="targetPoint" />
          </mxGeometry>
        </mxCell>
        <mxCell id="QBLKQdz6iIuvLNrxdn-J-5" value="&lt;span style=&quot;font-size: 12px; text-wrap-mode: wrap;&quot;&gt;client&lt;/span&gt;.all" style="edgeLabel;html=1;align=center;verticalAlign=middle;resizable=0;points=[];" parent="1" vertex="1" connectable="0">
          <mxGeometry x="940.0044827586207" y="170.00000000000023" as="geometry">
            <mxPoint x="-13" y="-1" as="offset" />
          </mxGeometry>
        </mxCell>
        <mxCell id="QBLKQdz6iIuvLNrxdn-J-6" value="" style="endArrow=classic;html=1;rounded=0;" parent="1" edge="1">
          <mxGeometry width="50" height="50" relative="1" as="geometry">
            <mxPoint x="1025" y="270.31" as="sourcePoint" />
            <mxPoint x="835" y="270" as="targetPoint" />
          </mxGeometry>
        </mxCell>
        <mxCell id="QBLKQdz6iIuvLNrxdn-J-7" value="Передача данных клиентов" style="edgeLabel;html=1;align=center;verticalAlign=middle;resizable=0;points=[];" parent="1" vertex="1" connectable="0">
          <mxGeometry x="930.0044827586207" y="250.00000000000023" as="geometry">
            <mxPoint x="-2" y="10" as="offset" />
          </mxGeometry>
        </mxCell>
        <mxCell id="QBLKQdz6iIuvLNrxdn-J-20" value="" style="rounded=0;whiteSpace=wrap;html=1;" parent="1" vertex="1">
          <mxGeometry x="1260" y="180" width="10" height="50" as="geometry" />
        </mxCell>
        <mxCell id="QBLKQdz6iIuvLNrxdn-J-21" value="" style="endArrow=classic;html=1;rounded=0;" parent="1" edge="1">
          <mxGeometry width="50" height="50" relative="1" as="geometry">
            <mxPoint x="1060" y="190" as="sourcePoint" />
            <mxPoint x="1255" y="190" as="targetPoint" />
          </mxGeometry>
        </mxCell>
        <mxCell id="QBLKQdz6iIuvLNrxdn-J-22" value="SELECT * FROM&amp;nbsp;&lt;span style=&quot;font-size: 12px; text-wrap-mode: wrap;&quot;&gt;client&lt;/span&gt;" style="edgeLabel;html=1;align=center;verticalAlign=middle;resizable=0;points=[];" parent="1" vertex="1" connectable="0">
          <mxGeometry x="1175.0044827586207" y="170.00000000000023" as="geometry">
            <mxPoint x="-10" y="4" as="offset" />
          </mxGeometry>
        </mxCell>
        <mxCell id="QBLKQdz6iIuvLNrxdn-J-23" value="" style="endArrow=classic;html=1;rounded=0;" parent="1" edge="1">
          <mxGeometry width="50" height="50" relative="1" as="geometry">
            <mxPoint x="1245" y="230" as="sourcePoint" />
            <mxPoint x="1065" y="230" as="targetPoint" />
          </mxGeometry>
        </mxCell>
        <mxCell id="QBLKQdz6iIuvLNrxdn-J-24" value="Данные клиентов" style="edgeLabel;html=1;align=center;verticalAlign=middle;resizable=0;points=[];" parent="1" vertex="1" connectable="0">
          <mxGeometry x="1175.0044827586207" y="210.00000000000023" as="geometry">
            <mxPoint x="-8" y="5" as="offset" />
          </mxGeometry>
        </mxCell>
        <mxCell id="j1bbp8KOwzvHQ2oXoYyj-3" value="Отображение вкладок" style="edgeLabel;html=1;align=center;verticalAlign=middle;resizable=0;points=[];" parent="1" vertex="1" connectable="0">
          <mxGeometry x="200.00448275862072" y="90.00000000000023" as="geometry">
            <mxPoint x="-2" y="10" as="offset" />
          </mxGeometry>
        </mxCell>
        <mxCell id="j1bbp8KOwzvHQ2oXoYyj-4" value="" style="endArrow=classic;html=1;rounded=0;" parent="1" edge="1">
          <mxGeometry width="50" height="50" relative="1" as="geometry">
            <mxPoint x="100" y="180" as="sourcePoint" />
            <mxPoint x="300" y="180" as="targetPoint" />
          </mxGeometry>
        </mxCell>
        <mxCell id="j1bbp8KOwzvHQ2oXoYyj-5" value="Выбор вкладки Клиенты" style="edgeLabel;html=1;align=center;verticalAlign=middle;resizable=0;points=[];" parent="1" vertex="1" connectable="0">
          <mxGeometry x="210.00448275862072" y="150.00000000000023" as="geometry">
            <mxPoint x="-2" y="10" as="offset" />
          </mxGeometry>
        </mxCell>
        <mxCell id="j1bbp8KOwzvHQ2oXoYyj-14" value="" style="endArrow=none;dashed=1;html=1;rounded=0;entryX=0.5;entryY=1;entryDx=0;entryDy=0;" parent="1" edge="1">
          <mxGeometry width="50" height="50" relative="1" as="geometry">
            <mxPoint x="310" y="470" as="sourcePoint" />
            <mxPoint x="310" y="460" as="targetPoint" />
          </mxGeometry>
        </mxCell>
        <mxCell id="Iv9XVQGBqn2HQ4vPcbje-1" value="" style="endArrow=classic;html=1;rounded=0;" parent="1" edge="1">
          <mxGeometry width="50" height="50" relative="1" as="geometry">
            <mxPoint x="300" y="112.03" as="sourcePoint" />
            <mxPoint x="100" y="112.28999999999999" as="targetPoint" />
          </mxGeometry>
        </mxCell>
        <mxCell id="Iv9XVQGBqn2HQ4vPcbje-4" value="" style="endArrow=none;dashed=1;html=1;rounded=0;entryX=0.5;entryY=1;entryDx=0;entryDy=0;" parent="1" target="Iv9XVQGBqn2HQ4vPcbje-3" edge="1">
          <mxGeometry width="50" height="50" relative="1" as="geometry">
            <mxPoint x="310" y="460" as="sourcePoint" />
            <mxPoint x="310" y="10" as="targetPoint" />
          </mxGeometry>
        </mxCell>
        <mxCell id="Iv9XVQGBqn2HQ4vPcbje-3" value="" style="rounded=0;whiteSpace=wrap;html=1;" parent="1" vertex="1">
          <mxGeometry x="305" y="160" width="10" height="30" as="geometry" />
        </mxCell>
        <mxCell id="Iv9XVQGBqn2HQ4vPcbje-6" value="" style="endArrow=none;dashed=1;html=1;rounded=0;entryX=0.5;entryY=1;entryDx=0;entryDy=0;" parent="1" target="QBLKQdz6iIuvLNrxdn-J-8" edge="1">
          <mxGeometry width="50" height="50" relative="1" as="geometry">
            <mxPoint x="1045" y="480" as="sourcePoint" />
            <mxPoint x="1045" y="170" as="targetPoint" />
          </mxGeometry>
        </mxCell>
        <mxCell id="QBLKQdz6iIuvLNrxdn-J-8" value="" style="rounded=0;whiteSpace=wrap;html=1;" parent="1" vertex="1">
          <mxGeometry x="1040" y="170" width="10" height="110" as="geometry" />
        </mxCell>
        <mxCell id="Iv9XVQGBqn2HQ4vPcbje-10" value="" style="endArrow=none;dashed=1;html=1;rounded=0;entryX=0.5;entryY=1;entryDx=0;entryDy=0;" parent="1" target="Iv9XVQGBqn2HQ4vPcbje-9" edge="1">
          <mxGeometry width="50" height="50" relative="1" as="geometry">
            <mxPoint x="565" y="470" as="sourcePoint" />
            <mxPoint x="565" y="10" as="targetPoint" />
          </mxGeometry>
        </mxCell>
        <mxCell id="Iv9XVQGBqn2HQ4vPcbje-9" value="" style="rounded=0;whiteSpace=wrap;html=1;" parent="1" vertex="1">
          <mxGeometry x="560" y="290" width="10" height="60" as="geometry" />
        </mxCell>
      </root>
    </mxGraphModel>
  </diagram>
</mxfile>
